<svg version="1.1" id="Layer_1" xmlns="http://www.w3.org/2000/svg" xmlns:xlink="http://www.w3.org/1999/xlink" x="0px" y="0px"
	 width="100%" viewBox="0 0 461 507" enable-background="new 0 0 461 507" xml:space="preserve">
<path fill="#000000" opacity="1.000000" stroke="none" 
	d="
M262.000000,508.000000 
	C174.666687,508.000000 87.833374,508.000000 1.000046,508.000000 
	C1.000031,339.000061 1.000031,170.000122 1.000015,1.000137 
	C154.666565,1.000092 308.333130,1.000092 461.999756,1.000046 
	C461.999847,169.999863 461.999847,338.999725 461.999939,507.999786 
	C395.500000,508.000000 329.000000,508.000000 262.000000,508.000000 
M339.944641,370.427826 
	C349.144714,361.844879 359.019043,353.865662 367.378326,344.529846 
	C378.423859,332.193878 386.661102,317.768799 394.291443,303.052551 
	C398.444519,295.042755 398.240021,293.845734 390.103149,289.762878 
	C373.971039,281.668243 357.851013,273.549103 341.682648,265.527527 
	C339.878357,264.632355 337.793549,264.302643 335.949188,263.744110 
	C321.433441,298.408295 297.699249,322.248138 261.727173,334.449799 
	C261.727173,278.529205 261.727173,223.455307 261.727173,168.394623 
	C239.685486,168.394623 218.120575,168.394623 196.169159,168.394623 
	C196.169159,223.672302 196.169159,278.600342 196.169159,333.974701 
	C164.991714,324.931915 142.568192,305.729492 127.037621,278.323975 
	C118.320328,262.941284 113.238235,246.301468 111.635445,228.482880 
	C110.422844,215.002060 110.729576,201.770187 113.615135,188.597031 
	C117.809555,169.448654 125.645042,152.085281 138.313293,136.895264 
	C150.199066,122.643486 164.099472,111.299911 181.131805,103.674110 
	C200.440216,95.029259 220.458954,93.209358 241.199982,95.843842 
	C266.653229,99.076866 288.317017,110.252556 306.915588,127.438408 
	C318.367798,138.020752 327.250397,150.715195 333.686707,164.979309 
	C334.956085,167.792542 336.215607,168.277924 338.934509,166.900864 
	C357.361481,157.568008 375.823425,148.303055 394.338013,139.145523 
	C396.882904,137.886780 397.176758,136.878769 395.988342,134.242615 
	C388.325378,117.244568 378.432495,101.682869 365.991730,87.840370 
	C348.183990,68.026108 326.987579,52.936615 302.502533,42.207970 
	C278.202606,31.560452 252.743195,26.945955 226.489182,26.270124 
	C217.620865,26.041840 208.700882,27.304501 199.822495,28.089222 
	C179.996506,29.841549 161.436981,36.137741 143.792526,44.945255 
	C124.710236,54.470490 107.940063,67.136055 93.446884,83.004051 
	C81.934227,95.608795 72.102364,109.304581 64.550415,124.454071 
	C54.123272,145.371307 46.419945,167.400864 45.219025,190.935333 
	C44.325405,208.447571 43.968281,226.142303 45.461990,243.576721 
	C46.895756,260.311493 51.712418,276.600586 58.033474,292.346161 
	C67.053207,314.814056 79.459702,335.089813 96.239822,352.551239 
	C113.396545,370.404572 133.581772,383.822998 156.568466,393.133850 
	C177.928650,401.785889 200.065475,406.508484 223.076355,406.863007 
	C231.008759,406.985260 239.041992,406.895874 246.872879,405.793213 
	C258.683228,404.130249 270.571411,402.270752 282.040924,399.100067 
	C302.847443,393.348236 321.966278,383.729706 339.944641,370.427826 
M153.127045,478.377014 
	C153.127045,480.473206 153.127045,482.569397 153.127045,484.713013 
	C204.027725,484.713013 254.252686,484.713013 304.660522,484.713013 
	C304.660522,466.464905 304.660522,448.443481 304.660522,430.539917 
	C253.972229,430.539917 203.632004,430.539917 153.126480,430.539917 
	C153.126480,446.436981 153.126480,461.919403 153.127045,478.377014 
z"/>
<path fill="#8A55F3" opacity="1.000000" stroke="none" 
	d="
M339.681335,370.677917 
	C321.966278,383.729706 302.847443,393.348236 282.040924,399.100067 
	C270.571411,402.270752 258.683228,404.130249 246.872879,405.793213 
	C239.041992,406.895874 231.008759,406.985260 223.076355,406.863007 
	C200.065475,406.508484 177.928650,401.785889 156.568466,393.133850 
	C133.581772,383.822998 113.396545,370.404572 96.239822,352.551239 
	C79.459702,335.089813 67.053207,314.814056 58.033474,292.346161 
	C51.712418,276.600586 46.895756,260.311493 45.461990,243.576721 
	C43.968281,226.142303 44.325405,208.447571 45.219025,190.935333 
	C46.419945,167.400864 54.123272,145.371307 64.550415,124.454071 
	C72.102364,109.304581 81.934227,95.608795 93.446884,83.004051 
	C107.940063,67.136055 124.710236,54.470490 143.792526,44.945255 
	C161.436981,36.137741 179.996506,29.841549 199.822495,28.089222 
	C208.700882,27.304501 217.620865,26.041840 226.489182,26.270124 
	C252.743195,26.945955 278.202606,31.560452 302.502533,42.207970 
	C326.987579,52.936615 348.183990,68.026108 365.991730,87.840370 
	C378.432495,101.682869 388.325378,117.244568 395.988342,134.242615 
	C397.176758,136.878769 396.882904,137.886780 394.338013,139.145523 
	C375.823425,148.303055 357.361481,157.568008 338.934509,166.900864 
	C336.215607,168.277924 334.956085,167.792542 333.686707,164.979309 
	C327.250397,150.715195 318.367798,138.020752 306.915588,127.438408 
	C288.317017,110.252556 266.653229,99.076866 241.199982,95.843842 
	C220.458954,93.209358 200.440216,95.029259 181.131805,103.674110 
	C164.099472,111.299911 150.199066,122.643486 138.313293,136.895264 
	C125.645042,152.085281 117.809555,169.448654 113.615135,188.597031 
	C110.729576,201.770187 110.422844,215.002060 111.635445,228.482880 
	C113.238235,246.301468 118.320328,262.941284 127.037621,278.323975 
	C142.568192,305.729492 164.991714,324.931915 196.169159,333.974701 
	C196.169159,278.600342 196.169159,223.672302 196.169159,168.394623 
	C218.120575,168.394623 239.685486,168.394623 261.727173,168.394623 
	C261.727173,223.455307 261.727173,278.529205 261.727173,334.449799 
	C297.699249,322.248138 321.433441,298.408295 335.949188,263.744110 
	C337.793549,264.302643 339.878357,264.632355 341.682648,265.527527 
	C357.851013,273.549103 373.971039,281.668243 390.103149,289.762878 
	C398.240021,293.845734 398.444519,295.042755 394.291443,303.052551 
	C386.661102,317.768799 378.423859,332.193878 367.378326,344.529846 
	C359.019043,353.865662 349.144714,361.844879 339.681335,370.677917 
z"/>
<path fill="#8A55F2" opacity="1.000000" stroke="none" 
	d="
M153.126770,477.889404 
	C153.126480,461.919403 153.126480,446.436981 153.126480,430.539917 
	C203.632004,430.539917 253.972229,430.539917 304.660522,430.539917 
	C304.660522,448.443481 304.660522,466.464905 304.660522,484.713013 
	C254.252686,484.713013 204.027725,484.713013 153.127045,484.713013 
	C153.127045,482.569397 153.127045,480.473206 153.126770,477.889404 
z"/>
</svg>