<?xml version="1.0" encoding="UTF-8"?>
<svg version="1.1" xmlns="http://www.w3.org/2000/svg" width="461" height="507">
<path d="M0 0 C1.17024929 0.79714052 2.35460263 1.57394595 3.55175781 2.33007812 C4.98311294 3.23580854 6.37200256 4.20805452 7.75048828 5.19238281 C7.75048828 5.85238281 7.75048828 6.51238281 7.75048828 7.19238281 C8.74048828 7.19238281 9.73048828 7.19238281 10.75048828 7.19238281 C11.94735651 8.2952114 13.13209198 9.41456891 14.24658203 10.60058594 C15.94321232 12.39636994 17.71410409 14.09528146 19.50048828 15.80175781 C33.57073684 29.43810747 45.32812626 43.98791521 54.75048828 61.19238281 C55.10433594 61.83433594 55.45818359 62.47628906 55.82275391 63.13769531 C61.80175278 74.11194553 61.80175278 74.11194553 61.65620422 77.17948914 C60.29511731 80.20441462 58.31047248 80.85365078 55.3762207 82.32446289 C53.65389473 83.19975395 53.65389473 83.19975395 51.89677429 84.09272766 C50.63349173 84.71644481 49.36987763 85.33949086 48.10595703 85.96191406 C46.81615486 86.60790297 45.5267978 87.25478131 44.23786926 87.9025116 C41.53447361 89.25711408 38.82637336 90.60165907 36.11450195 91.93920898 C32.63855282 93.65445396 29.1747091 95.3926515 25.71398449 97.13837147 C23.05295525 98.47778436 20.38623708 99.80552479 17.71761513 101.12973595 C16.43807748 101.76624572 15.16025641 102.4062183 13.88420677 103.04969215 C12.09961939 103.94725008 10.30644502 104.82767312 8.51293945 105.70727539 C7.49447433 106.21261307 6.47600922 106.71795074 5.42668152 107.23860168 C2.75048828 108.19238281 2.75048828 108.19238281 0.51802063 108.05986023 C-2.79076188 106.43596118 -3.90893864 102.57751721 -5.43701172 99.37988281 C-19.42925604 71.65300893 -43.89473651 51.08827095 -73.24951172 41.19238281 C-100.84877032 32.42658055 -131.44712909 33.0243107 -157.62451172 46.00488281 C-170.01370379 52.45554128 -180.36836714 60.39687482 -190.24951172 70.19238281 C-191.06419922 70.99417969 -191.87888672 71.79597656 -192.71826172 72.62207031 C-215.27208263 96.20828444 -224.03563328 129.09027254 -223.49169922 160.90332031 C-222.45890138 194.80158613 -207.84546562 226.17195714 -183.33935547 249.44628906 C-170.90587698 260.77562103 -156.05261431 267.92468195 -140.24951172 273.19238281 C-139.91951172 218.74238281 -139.58951172 164.29238281 -139.24951172 108.19238281 C-117.27027623 107.23676388 -95.24356497 107.6808932 -73.24951172 108.19238281 C-73.24951172 162.97238281 -73.24951172 217.75238281 -73.24951172 274.19238281 C-58.58529763 268.15417701 -46.22264003 262.24549596 -34.24951172 252.19238281 C-33.46189453 251.55042969 -32.67427734 250.90847656 -31.86279297 250.24707031 C-17.28533931 237.8436482 -7.66409753 221.65943594 -0.24951172 204.19238281 C6.86818661 204.56164971 12.43749558 207.70912081 18.70361328 210.90722656 C19.84078796 211.47816544 20.97796265 212.04910431 22.14959717 212.63734436 C25.15732605 214.15005445 28.16031317 215.67147804 31.16149902 217.19708252 C33.61356081 218.44085485 36.0700976 219.67562984 38.52690506 220.90999508 C43.60525036 223.46196745 48.68017133 226.02082003 53.74755859 228.59448242 C54.64355774 229.0489122 55.53955688 229.50334198 56.46270752 229.97154236 C58.75048828 231.19238281 58.75048828 231.19238281 61.75048828 233.19238281 C61.24085172 238.55045373 59.85966901 242.77322248 57.37548828 247.56738281 C57.02462158 248.25364746 56.67375488 248.93991211 56.31225586 249.64697266 C39.30263984 282.13493435 13.55545333 309.50689269 -19.24951172 326.19238281 C-19.9138623 326.5360791 -20.57821289 326.87977539 -21.26269531 327.23388672 C-47.5553625 340.71227829 -76.78023498 347.63446581 -106.31201172 347.50488281 C-107.31356796 347.50214859 -107.31356796 347.50214859 -108.33535767 347.49935913 C-148.65072201 347.31564779 -188.1794467 334.93936212 -220.24951172 310.19238281 C-221.19052734 309.49628906 -222.13154297 308.80019531 -223.10107422 308.08300781 C-227.68868814 304.64584816 -227.68868814 304.64584816 -229.24951172 303.19238281 C-229.24951172 302.53238281 -229.24951172 301.87238281 -229.24951172 301.19238281 C-230.07708984 300.85207031 -230.07708984 300.85207031 -230.92138672 300.50488281 C-239.39110572 295.73000767 -246.55826993 285.89481531 -252.24951172 278.19238281 C-252.65105469 277.65613281 -253.05259766 277.11988281 -253.46630859 276.56738281 C-272.19661597 251.33075814 -284.06337493 222.13001305 -289.24951172 191.19238281 C-289.43425049 190.11335693 -289.61898926 189.03433105 -289.80932617 187.92260742 C-291.35113923 177.86280804 -291.58930006 167.94898146 -291.56518555 157.7878418 C-291.56203557 155.02579838 -291.58554627 152.26484103 -291.61083984 149.50292969 C-291.72466383 117.62210676 -283.33648158 87.20163854 -268.24951172 59.19238281 C-267.92869629 58.58555664 -267.60788086 57.97873047 -267.27734375 57.35351562 C-260.77390726 45.11291856 -252.71818445 34.62303655 -243.32373047 24.45800781 C-241.43705203 22.3972291 -239.65678746 20.28046732 -237.87451172 18.12988281 C-233.549746 13.16589076 -228.39863227 9.26011643 -223.24951172 5.19238281 C-222.06035156 4.18691406 -222.06035156 4.18691406 -220.84716797 3.16113281 C-159.50559728 -48.28005126 -63.70091268 -43.95174561 0 0 Z " fill="#8A54F3" transform="translate(334.24951171875,58.8076171875)"/>
<path d="M0 0 C50.16 0 100.32 0 152 0 C152 18.15 152 36.3 152 55 C101.84 55 51.68 55 0 55 C0 36.85 0 18.7 0 0 Z " fill="#8A54F2" transform="translate(152,429)"/>
<path d="M0 0 C0 54.78 0 109.56 0 166 C0.66 166.33 1.32 166.66 2 167 C1.01 167 0.02 167 -1 167 C-2.42337486 164.15325029 -2.12269995 161.75532955 -2.12025452 158.57138062 C-2.12110894 157.90405273 -2.12196337 157.23672485 -2.12284368 156.5491749 C-2.12449684 154.30277589 -2.11897979 152.05645079 -2.11352539 149.81005859 C-2.11324346 148.2038727 -2.11340137 146.59768667 -2.1139679 144.99150085 C-2.11425563 140.62191272 -2.10836274 136.25235185 -2.10139394 131.88277006 C-2.09515644 127.31968542 -2.09455629 122.75660021 -2.09336853 118.19351196 C-2.09025639 109.5485349 -2.08204456 100.90357043 -2.07201904 92.25859892 C-2.06085429 82.41835454 -2.05534654 72.57810957 -2.05032361 62.73786044 C-2.03986186 42.49189836 -2.02151782 22.24595356 -2 2 C-22.46 2 -42.92 2 -64 2 C-63.99476318 6.92728027 -63.98952637 11.85456055 -63.98413086 16.93115234 C-63.96759511 33.17211887 -63.95647799 49.41308572 -63.94818783 65.65405846 C-63.94302587 75.50537926 -63.93598506 85.35669211 -63.92456055 95.20800781 C-63.91461067 103.79182237 -63.90814584 112.37563116 -63.90591151 120.95945132 C-63.90460492 125.50684295 -63.90152232 130.0542181 -63.89426994 134.60160446 C-63.88750495 138.87785893 -63.88538403 143.15409004 -63.88689232 147.43034935 C-63.88661621 149.00336649 -63.88461391 150.57638437 -63.88079453 152.1493969 C-63.87584981 154.29008725 -63.87700461 156.43068838 -63.87974548 158.57138062 C-63.87882369 159.77155508 -63.8779019 160.97172955 -63.87695217 162.20827293 C-64 165 -64 165 -65 167 C-66.65 166.67 -68.3 166.34 -70 166 C-69.01 165.67 -68.02 165.34 -67 165 C-66.67 110.55 -66.34 56.1 -66 0 C-44.02269212 -0.99896854 -21.99432038 -0.49987092 0 0 Z " fill="#7D55CC" transform="translate(261,167)"/>
<path d="M0 0 C0.66 1.32 1.32 2.64 2 4 C1.34 4.66 0.68 5.32 0 6 C-0.268125 6.99 -0.53625 7.98 -0.8125 9 C-2 12 -2 12 -4.375 13.375 C-7 14 -7 14 -11 14 C-9.42219077 10.28954753 -7.09296752 7.70093616 -4.375 4.75 C-3.55773437 3.85796875 -2.74046875 2.9659375 -1.8984375 2.046875 C-1.27195312 1.37140625 -0.64546875 0.6959375 0 0 Z " fill="#8855EA" transform="translate(93,81)"/>
<path d="M0 0 C-4.62 4.62 -9.24 9.24 -14 14 C-14.66 13.67 -15.32 13.34 -16 13 C-15.505 12.236875 -15.01 11.47375 -14.5 10.6875 C-12.75631692 8.07636249 -12.75631692 8.07636249 -13 5 C-12.21625 4.731875 -11.4325 4.46375 -10.625 4.1875 C-7.71885077 3.15185568 -7.71885077 3.15185568 -6 0 C-4 -1 -4 -1 0 0 Z " fill="#8457E2" transform="translate(362,349)"/>
<path d="M0 0 C1 3 1 3 -0.21484375 5.69921875 C-0.78332031 6.68535156 -1.35179687 7.67148437 -1.9375 8.6875 C-2.50339844 9.68136719 -3.06929688 10.67523438 -3.65234375 11.69921875 C-4.31943359 12.83810547 -4.31943359 12.83810547 -5 14 C-6.76462683 10.91190305 -7 9.76687864 -7 6 C-6.01 6 -5.02 6 -4 6 C-4.33 4.35 -4.66 2.7 -5 1 C-3.35 0.67 -1.7 0.34 0 0 Z " fill="#8553DF" transform="translate(393,299)"/>
<path d="M0 0 C1.04449911 3.13349732 0.93423645 3.98968256 0 7 C0.66 7.33 1.32 7.66 2 8 C1.25 10.4375 1.25 10.4375 0 13 C-2 13.875 -2 13.875 -4 14 C-4.66 13.67 -5.32 13.34 -6 13 C-4.31326082 8.50202887 -2.18326108 4.27113698 0 0 Z " fill="#8351DE" transform="translate(330,272)"/>
<path d="M0 0 C5.11365014 1.0681847 10.07227969 2.23107476 15 4 C12 6 12 6 10 6 C10 5.34 10 4.68 10 4 C8.68 4 7.36 4 6 4 C5.67 4.99 5.34 5.98 5 7 C4.34 7 3.68 7 3 7 C3.33 5.35 3.66 3.7 4 2 C2.35 2 0.7 2 -1 2 C-0.67 1.34 -0.34 0.68 0 0 Z " fill="#8053D6" transform="translate(278,33)"/>
<path d="M0 0 C1.06125335 3.71438673 1 7.14694846 1 11 C-0.65 10.67 -2.3 10.34 -4 10 C-4.33 11.32 -4.66 12.64 -5 14 C-6 11 -6 11 -4.78515625 8.30078125 C-4.21667969 7.31464844 -3.64820313 6.32851562 -3.0625 5.3125 C-2.49660156 4.31863281 -1.93070312 3.32476562 -1.34765625 2.30078125 C-0.90292969 1.54152344 -0.45820312 0.78226562 0 0 Z " fill="#7D50D4" transform="translate(67,116)"/>
<path d="M0 0 C1.32 0 2.64 0 4 0 C4.33 1.32 4.66 2.64 5 4 C6.32 3.67 7.64 3.34 9 3 C9.33 3.99 9.66 4.98 10 6 C10.66 6 11.32 6 12 6 C12 6.66 12 7.32 12 8 C7.9642154 6.77987907 4.44593665 5.46138332 1 3 C0.67 2.01 0.34 1.02 0 0 Z M9 1 C9.66 1 10.32 1 11 1 C10.67 1.99 10.34 2.98 10 4 C9.67 3.01 9.34 2.02 9 1 Z " fill="#8357DC" transform="translate(129,377)"/>
<path d="M0 0 C0.66 0.33 1.32 0.66 2 1 C-3 6 -8 11 -13 16 C-12.34 13.69 -11.68 11.38 -11 9 C-10.01 9 -9.02 9 -8 9 C-8 8.34 -8 7.68 -8 7 C-6.25 5.2734375 -6.25 5.2734375 -4 3.375 C-3.2575 2.74335937 -2.515 2.11171875 -1.75 1.4609375 C-1.1725 0.97882813 -0.595 0.49671875 0 0 Z " fill="#774EC8" transform="translate(148,122)"/>
<path d="M0 0 C0 3.80345877 -1.13786331 4.77701015 -3.5 7.6875 C-4.1496875 8.49574219 -4.799375 9.30398438 -5.46875 10.13671875 C-5.9740625 10.75160156 -6.479375 11.36648438 -7 12 C-7.33 11.34 -7.66 10.68 -8 10 C-8.66 9.67 -9.32 9.34 -10 9 C-8 6 -8 6 -5.9375 5.5 C-5.298125 5.335 -4.65875 5.17 -4 5 C-3.67 4.01 -3.34 3.02 -3 2 C-2.01 1.34 -1.02 0.68 0 0 Z " fill="#7F52D7" transform="translate(376,329)"/>
<path d="M0 0 C0 0.99 0 1.98 0 3 C-1.63604196 4.37073786 -3.30678061 5.70055256 -5 7 C-5.7115625 8.0828125 -5.7115625 8.0828125 -6.4375 9.1875 C-8.65271137 11.75714519 -10.7194467 11.70839526 -14 12 C-9.73412126 7.45890328 -4.96387672 3.75264754 0 0 Z " fill="#7B52CC" transform="translate(304,308)"/>
<path d="M0 0 C0.66 0.33 1.32 0.66 2 1 C-0.12690633 5.25381267 -1.61208513 6.39466529 -6 8 C-8.27191416 10.02040748 -8.27191416 10.02040748 -10 12 C-10.66 11.67 -11.32 11.34 -12 11 C-8.04 7.37 -4.08 3.74 0 0 Z " fill="#7B52D1" transform="translate(114,61)"/>
<path d="M0 0 C1.918125 0.433125 1.918125 0.433125 3.875 0.875 C4.95394531 1.11863281 4.95394531 1.11863281 6.0546875 1.3671875 C8 2 8 2 10 4 C8.01432292 3.93489583 6.02864583 3.86979167 4.04296875 3.8046875 C1.68640281 3.86745538 1.68640281 3.86745538 -1 6 C-1.66 5.34 -2.32 4.68 -3 4 C-2.34 3.67 -1.68 3.34 -1 3 C-0.67 2.01 -0.34 1.02 0 0 Z " fill="#8756E3" transform="translate(166,322)"/>
<path d="M0 0 C3.26008643 3.16952847 6.22237877 6.39937989 9 10 C7.35 10 5.7 10 4 10 C4 9.34 4 8.68 4 8 C3.34 7.67 2.68 7.34 2 7 C1.26924352 4.6859378 0.59861742 2.35171131 0 0 Z " fill="#7D53D2" transform="translate(135,292)"/>
<path d="M0 0 C1.32 0 2.64 0 4 0 C4 0.66 4 1.32 4 2 C4.99 2.33 5.98 2.66 7 3 C5.71349294 3.69710731 4.42059335 4.38242876 3.125 5.0625 C2.04605469 5.63677734 2.04605469 5.63677734 0.9453125 6.22265625 C0.30335938 6.47917969 -0.33859375 6.73570312 -1 7 C-1.66 6.67 -2.32 6.34 -3 6 C-2.34 5.34 -1.68 4.68 -1 4 C-0.3574765 1.93125966 -0.3574765 1.93125966 0 0 Z " fill="#8051D6" transform="translate(382,138)"/>
<path d="M0 0 C0.53625 0.28875 1.0725 0.5775 1.625 0.875 C4.05418694 2.13418501 4.05418694 2.13418501 7.125 2.6875 C10 4 10 4 11.375 7.625 C11.58125 8.73875 11.7875 9.8525 12 11 C7.36279281 7.72469104 3.31457218 4.69564393 0 0 Z " fill="#7D55D2" transform="translate(298,119)"/>
<path d="M0 0 C0.66 0.33 1.32 0.66 2 1 C0.10595266 4.34243648 -0.94091591 4.97997149 -4.6875 6.25 C-5.780625 6.4975 -6.87375 6.745 -8 7 C-8.66 6.34 -9.32 5.68 -10 5 C-8.38007835 4.13624104 -6.75388139 3.28424146 -5.125 2.4375 C-4.22007812 1.96183594 -3.31515625 1.48617188 -2.3828125 0.99609375 C-1.20332031 0.50302734 -1.20332031 0.50302734 0 0 Z " fill="#7C52CD" transform="translate(281,324)"/>
<path d="M0 0 C0.66 0.33 1.32 0.66 2 1 C-0.80804268 3.96404505 -3.18315774 6.44499019 -7 8 C-7.66 7.34 -8.32 6.68 -9 6 C-6.03 4.02 -3.06 2.04 0 0 Z " fill="#7C52D0" transform="translate(132,49)"/>
<path d="M0 0 C-3.36423277 2.96052484 -6.69159287 3.92289822 -11 5 C-11.33 4.01 -11.66 3.02 -12 2 C-7.8803623 0.70756464 -4.33168317 -0.26252625 0 0 Z " fill="#8156D8" transform="translate(309,387)"/>
<path d="M0 0 C4.55737263 0.43820891 7.57653445 0.85041169 11 4 C7.14354879 4.22036864 4.50776784 3.60355101 1 2 C0.67 2.99 0.34 3.98 0 5 C-0.33 4.34 -0.66 3.68 -1 3 C-0.67 2.01 -0.34 1.02 0 0 Z " fill="#7C55C9" transform="translate(334,263)"/>
<path d="M0 0 C1.3125 2.0625 1.3125 2.0625 2 4 C1.2575 3.62875 0.515 3.2575 -0.25 2.875 C-2.94283647 1.70484137 -2.94283647 1.70484137 -5.3125 2.875 C-6.1478125 3.431875 -6.1478125 3.431875 -7 4 C-7 2.68 -7 1.36 -7 0 C-4.25509788 -1.37245106 -2.87939419 -0.93580311 0 0 Z " fill="#8352DE" transform="translate(370,92)"/>
<path d="M0 0 C4.67692308 1.47692308 4.67692308 1.47692308 6.3125 4.125 C6.539375 4.74375 6.76625 5.3625 7 6 C6.34 6.66 5.68 7.32 5 8 C4.16382818 6.8562364 3.33113541 5.70992861 2.5 4.5625 C2.0359375 3.92441406 1.571875 3.28632813 1.09375 2.62890625 C0 1 0 1 0 0 Z " fill="#8153D6" transform="translate(78,330)"/>
<path d="M0 0 C2.00993705 3.01490557 2.72623341 5.2149927 3.625 8.6875 C3.88539062 9.68136719 4.14578125 10.67523438 4.4140625 11.69921875 C4.60742188 12.45847656 4.80078125 13.21773438 5 14 C1.57245724 11.71497149 1.11558883 10.86165366 0 7 C-0.07646165 4.6679198 -0.09143299 2.33154122 0 0 Z " fill="#7E55CD" transform="translate(115,252)"/>
<path d="M0 0 C2.97 0 5.94 0 9 0 C9.33 0.99 9.66 1.98 10 3 C6.37 2.67 2.74 2.34 -1 2 C-0.67 1.34 -0.34 0.68 0 0 Z " fill="#8559D6" transform="translate(239,93)"/>
<path d="M0 0 C0 3.16820458 -0.62797454 4.25594908 -2 7 C-2 7.99 -2 8.98 -2 10 C-3.65 10 -5.3 10 -7 10 C-5.33248852 6.05860922 -2.77289351 3.2107188 0 0 Z " fill="#794FCC" transform="translate(89,85)"/>
<path d="M0 0 C3.81684226 1.55500981 6.19195732 4.03595495 9 7 C8.67 7.66 8.34 8.32 8 9 C6.53515625 7.73046875 5.0703125 6.4609375 3.60546875 5.19140625 C1.89287029 3.79128769 1.89287029 3.79128769 -1 3 C-0.67 2.01 -0.34 1.02 0 0 Z " fill="#784ECC" transform="translate(358,81)"/>
<path d="M0 0 C1.65 0 3.3 0 5 0 C1.87511433 2.52394612 -1.31314387 4.39701907 -5 6 C-5.66 5.67 -6.32 5.34 -7 5 C-6.34 4.01 -5.68 3.02 -5 2 C-2.375 1.8125 -2.375 1.8125 0 2 C0 1.34 0 0.68 0 0 Z " fill="#7D55CE" transform="translate(374,145)"/>
<path d="M0 0 C5.445 1.485 5.445 1.485 11 3 C10.01 4.485 10.01 4.485 9 6 C8.01 5.34 7.02 4.68 6 4 C4.34450469 3.61500109 2.6777567 3.27206865 1 3 C0.67 2.01 0.34 1.02 0 0 Z " fill="#7E54D3" transform="translate(180,328)"/>
<path d="M0 0 C1.98 0.495 1.98 0.495 4 1 C2.7508258 4.45925163 1.32472205 7.14693203 -1 10 C-1.09978121 6.50765756 -0.77842938 3.40562852 0 0 Z " fill="#8155D8" transform="translate(124,147)"/>
<path d="M0 0 C1.37432457 3.81756824 0.67975039 7.07255329 0 11 C-0.99 11 -1.98 11 -3 11 C-2.69078116 9.54096742 -2.37751201 8.08279278 -2.0625 6.625 C-1.88847656 5.81289062 -1.71445312 5.00078125 -1.53515625 4.1640625 C-1 2 -1 2 0 0 Z " fill="#7E54D0" transform="translate(56,139)"/>
<path d="M0 0 C1.2065625 0.0309375 1.2065625 0.0309375 2.4375 0.0625 C2.4375 0.7225 2.4375 1.3825 2.4375 2.0625 C3.4275 2.3925 4.4175 2.7225 5.4375 3.0625 C3.625 4.125 3.625 4.125 1.4375 5.0625 C0.4475 4.7325 -0.5425 4.4025 -1.5625 4.0625 C-0.9025 4.0625 -0.2425 4.0625 0.4375 4.0625 C0.4375 3.4025 0.4375 2.7425 0.4375 2.0625 C-0.8825 1.7325 -2.2025 1.4025 -3.5625 1.0625 C-2.5625 0.0625 -2.5625 0.0625 0 0 Z " fill="#8354D9" transform="translate(179.5625,97.9375)"/>
<path d="M0 0 C3.36720387 1.39332574 4.9859524 2.9789286 7 6 C4.03 5.505 4.03 5.505 1 5 C0.67 3.35 0.34 1.7 0 0 Z " fill="#7B4FD0" transform="translate(347,70)"/>
<path d="M0 0 C3.59007126 1.33345504 6.79570907 2.8943231 10 5 C10 5.33 10 5.66 10 6 C7.69 5.67 5.38 5.34 3 5 C3 4.01 3 3.02 3 2 C2.01 1.67 1.02 1.34 0 1 C0 0.67 0 0.34 0 0 Z " fill="#7C51CB" transform="translate(315,48)"/>
<path d="M0 0 C-0.33 0.66 -0.66 1.32 -1 2 C-4.63 2 -8.26 2 -12 2 C-4.86956522 -1.56521739 -4.86956522 -1.56521739 0 0 Z " fill="#7E54D0" transform="translate(191,29)"/>
<path d="M0 0 C2.31 0.33 4.62 0.66 7 1 C3.46588679 3.12046792 0.05606165 3.53199289 -4 4 C-4 3.34 -4 2.68 -4 2 C-2.68 2 -1.36 2 0 2 C0 1.34 0 0.68 0 0 Z " fill="#8458D4" transform="translate(274,397)"/>
<path d="M0 0 C0.99 0.33 1.98 0.66 3 1 C3 1.66 3 2.32 3 3 C3.99 3.33 4.98 3.66 6 4 C5.34 5.32 4.68 6.64 4 8 C1.84622436 5.37801226 0.59927826 3.35595828 0 0 Z " fill="#8053D9" transform="translate(64,306)"/>
<path d="M0 0 C0.66 0 1.32 0 2 0 C2 0.66 2 1.32 2 2 C3.98 2 5.96 2 8 2 C4.81237635 4.12508244 2.73487777 4.5020163 -1 5 C-0.67 3.35 -0.34 1.7 0 0 Z " fill="#8356D7" transform="translate(282,393)"/>
<path d="M0 0 C6.875 3.75 6.875 3.75 8 6 C4.25 7.125 4.25 7.125 2 6 C2 5.01 2 4.02 2 3 C1.34 2.67 0.68 2.34 0 2 C0 1.34 0 0.68 0 0 Z " fill="#7951CE" transform="translate(153,311)"/>
<path d="M0 0 C3.65316671 1.24976756 4.78065836 1.67098753 7 5 C4.69 5 2.38 5 0 5 C0 3.35 0 1.7 0 0 Z " fill="#7D4FD1" transform="translate(330,57)"/>
<path d="M0 0 C0.33 0.66 0.66 1.32 1 2 C1.66 2.33 2.32 2.66 3 3 C1.02 4.32 -0.96 5.64 -3 7 C-1.125 1.125 -1.125 1.125 0 0 Z " fill="#7F53D6" transform="translate(333,369)"/>
<path d="M0 0 C0.66 0 1.32 0 2 0 C2 0.99 2 1.98 2 3 C2.66 3 3.32 3 4 3 C4 4.98 4 6.96 4 9 C1.49701566 6.06171403 0.53069061 3.82097239 0 0 Z " fill="#7F55D2" transform="translate(59,295)"/>
<path d="M0 0 C5.75 1.75 5.75 1.75 8 4 C4.37673261 5.2077558 3.35853631 4.54311128 0 3 C0 2.01 0 1.02 0 0 Z " fill="#7C53D1" transform="translate(359,274)"/>
<path d="M0 0 C0.99 0.495 0.99 0.495 2 1 C1.01 1.495 1.01 1.495 0 2 C0 1.34 0 0.68 0 0 Z M-2 2 C-1.34 2 -0.68 2 0 2 C1.625 4 1.625 4 3 6 C0.69 5.67 -1.62 5.34 -4 5 C-3.34 4.01 -2.68 3.02 -2 2 Z " fill="#7B4FE3" transform="translate(174,393)"/>
<path d="M0 0 C0.33 0 0.66 0 1 0 C1.33 3.3 1.66 6.6 2 10 C0.62437146 8.71034824 -0.70766393 7.37310707 -2 6 C-2 5.34 -2 4.68 -2 4 C-1.34 4 -0.68 4 0 4 C0 2.68 0 1.36 0 0 Z " fill="#8152DB" transform="translate(325,142)"/>
<path d="" fill="#000000" transform="translate(0,0)"/>
<path d="" fill="#000000" transform="translate(0,0)"/>
<path d="" fill="#000000" transform="translate(0,0)"/>
<path d="" fill="#000000" transform="translate(0,0)"/>
<path d="" fill="#000000" transform="translate(0,0)"/>
<path d="" fill="#000000" transform="translate(0,0)"/>
<path d="" fill="#000000" transform="translate(0,0)"/>
<path d="" fill="#000000" transform="translate(0,0)"/>
<path d="" fill="#000000" transform="translate(0,0)"/>
<path d="" fill="#000000" transform="translate(0,0)"/>
<path d="" fill="#000000" transform="translate(0,0)"/>
<path d="" fill="#000000" transform="translate(0,0)"/>
<path d="" fill="#000000" transform="translate(0,0)"/>
<path d="" fill="#000000" transform="translate(0,0)"/>
<path d="" fill="#000000" transform="translate(0,0)"/>
<path d="" fill="#000000" transform="translate(0,0)"/>
<path d="" fill="#000000" transform="translate(0,0)"/>
<path d="" fill="#000000" transform="translate(0,0)"/>
<path d="" fill="#000000" transform="translate(0,0)"/>
<path d="" fill="#000000" transform="translate(0,0)"/>
<path d="" fill="#000000" transform="translate(0,0)"/>
<path d="" fill="#000000" transform="translate(0,0)"/>
<path d="" fill="#000000" transform="translate(0,0)"/>
<path d="" fill="#000000" transform="translate(0,0)"/>
<path d="" fill="#000000" transform="translate(0,0)"/>
<path d="" fill="#000000" transform="translate(0,0)"/>
<path d="" fill="#000000" transform="translate(0,0)"/>
<path d="" fill="#000000" transform="translate(0,0)"/>
<path d="" fill="#000000" transform="translate(0,0)"/>
<path d="" fill="#000000" transform="translate(0,0)"/>
<path d="" fill="#000000" transform="translate(0,0)"/>
<path d="" fill="#000000" transform="translate(0,0)"/>
<path d="" fill="#000000" transform="translate(0,0)"/>
<path d="" fill="#000000" transform="translate(0,0)"/>
<path d="" fill="#000000" transform="translate(0,0)"/>
<path d="" fill="#000000" transform="translate(0,0)"/>
<path d="" fill="#000000" transform="translate(0,0)"/>
<path d="" fill="#000000" transform="translate(0,0)"/>
<path d="" fill="#000000" transform="translate(0,0)"/>
<path d="" fill="#000000" transform="translate(0,0)"/>
<path d="" fill="#000000" transform="translate(0,0)"/>
<path d="" fill="#000000" transform="translate(0,0)"/>
<path d="" fill="#000000" transform="translate(0,0)"/>
</svg>
